<?xml version="1.0" encoding="UTF-8"?>
<svg width="416px" height="85px" viewBox="0 0 416 85" version="1.1" xmlns="http://www.w3.org/2000/svg" xmlns:xlink="http://www.w3.org/1999/xlink">
    <!-- Generator: Sketch 59 (86127) - https://sketch.com -->
    <title>logo</title>
    <desc>Created with Sketch.</desc>
    <defs>
        <linearGradient x1="58.9508296%" y1="-24.7474463%" x2="32.9109837%" y2="106.740605%" id="linearGradient-1">
            <stop stop-color="#F05A24" offset="0%"></stop>
            <stop stop-color="#F05D24" offset="20%"></stop>
            <stop stop-color="#F58E16" offset="32%"></stop>
            <stop stop-color="#FDDB00" offset="52%"></stop>
            <stop stop-color="#EAD707" offset="55%"></stop>
            <stop stop-color="#AACA1F" offset="65%"></stop>
            <stop stop-color="#78C031" offset="75%"></stop>
            <stop stop-color="#54B83F" offset="83%"></stop>
            <stop stop-color="#3EB447" offset="90%"></stop>
            <stop stop-color="#36B24A" offset="94%"></stop>
        </linearGradient>
        <linearGradient x1="17.8919182%" y1="74.1623826%" x2="79.4303797%" y2="41.6183298%" id="linearGradient-2">
            <stop stop-color="#CF4F27" offset="0%"></stop>
            <stop stop-color="#D95226" stop-opacity="0.69" offset="32%"></stop>
            <stop stop-color="#F05A24" stop-opacity="0" offset="100%"></stop>
        </linearGradient>
        <linearGradient x1="42.3856856%" y1="13.6472946%" x2="48.0513492%" y2="44.9098196%" id="linearGradient-3">
            <stop stop-color="#76933C" offset="0%"></stop>
            <stop stop-color="#2E9C48" stop-opacity="0" offset="100%"></stop>
        </linearGradient>
        <linearGradient x1="27.1632448%" y1="26.4959736%" x2="59.2223154%" y2="67.464422%" id="linearGradient-4">
            <stop stop-color="#1687C8" offset="0%"></stop>
            <stop stop-color="#1687C8" offset="29%"></stop>
            <stop stop-color="#1688C7" offset="30%"></stop>
            <stop stop-color="#22979A" offset="46%"></stop>
            <stop stop-color="#2AA377" offset="61%"></stop>
            <stop stop-color="#31AB5E" offset="76%"></stop>
            <stop stop-color="#35B04F" offset="89%"></stop>
            <stop stop-color="#36B24A" offset="100%"></stop>
        </linearGradient>
        <linearGradient x1="39.7283334%" y1="32.15311%" x2="79.9764963%" y2="101.881978%" id="linearGradient-5">
            <stop stop-color="#36B24A" stop-opacity="0" offset="0%"></stop>
            <stop stop-color="#2DAF4A" stop-opacity="0.21" offset="14%"></stop>
            <stop stop-color="#1AA84A" stop-opacity="0.63" offset="46%"></stop>
            <stop stop-color="#0EA44A" stop-opacity="0.9" offset="68%"></stop>
            <stop stop-color="#09A24A" offset="80%"></stop>
        </linearGradient>
        <linearGradient x1="125.928511%" y1="89.5596384%" x2="2.05628642%" y2="10.4695246%" id="linearGradient-6">
            <stop stop-color="#0EAB4B" offset="26%"></stop>
            <stop stop-color="#10A366" stop-opacity="0.78" offset="39%"></stop>
            <stop stop-color="#148FAB" stop-opacity="0.23" offset="67%"></stop>
            <stop stop-color="#1687C8" stop-opacity="0" offset="78%"></stop>
        </linearGradient>
        <linearGradient x1="125.928511%" y1="89.5596384%" x2="2.05628642%" y2="10.4695246%" id="linearGradient-7">
            <stop stop-color="#038A45" offset="26%"></stop>
            <stop stop-color="#088968" stop-opacity="0.73" offset="41%"></stop>
            <stop stop-color="#1587C2" stop-opacity="0.05" offset="76%"></stop>
            <stop stop-color="#1687C8" stop-opacity="0" offset="78%"></stop>
        </linearGradient>
        <linearGradient x1="66.2254233%" y1="107.059335%" x2="46.4145545%" y2="26.5204965%" id="linearGradient-8">
            <stop stop-color="#FDDB00" offset="0%"></stop>
            <stop stop-color="#FDD901" offset="34%"></stop>
            <stop stop-color="#FCD104" offset="52%"></stop>
            <stop stop-color="#FAC308" offset="67%"></stop>
            <stop stop-color="#F8B00F" offset="79%"></stop>
            <stop stop-color="#F69818" offset="90%"></stop>
            <stop stop-color="#F38020" offset="98%"></stop>
        </linearGradient>
        <linearGradient x1="76.2960548%" y1="18.1656727%" x2="38.3436583%" y2="63.0820277%" id="linearGradient-9">
            <stop stop-color="#CF4F27" offset="0%"></stop>
            <stop stop-color="#D75226" stop-opacity="0.75" offset="18%"></stop>
            <stop stop-color="#E05525" stop-opacity="0.48" offset="38%"></stop>
            <stop stop-color="#E75725" stop-opacity="0.27" offset="58%"></stop>
            <stop stop-color="#EC5924" stop-opacity="0.12" offset="75%"></stop>
            <stop stop-color="#EF5A24" stop-opacity="0.03" offset="90%"></stop>
            <stop stop-color="#F05A24" stop-opacity="0" offset="100%"></stop>
        </linearGradient>
        <linearGradient x1="4.5587066%" y1="29.2375858%" x2="72.7272727%" y2="78.854646%" id="linearGradient-10">
            <stop stop-color="#67BB46" offset="0%"></stop>
            <stop stop-color="#A9D033" offset="38%"></stop>
            <stop stop-color="#CBDB2A" offset="56%"></stop>
            <stop stop-color="#D8D91F" offset="71%"></stop>
            <stop stop-color="#FAD502" offset="98%"></stop>
            <stop stop-color="#FDD500" offset="100%"></stop>
        </linearGradient>
        <linearGradient x1="4.5587066%" y1="29.2375858%" x2="72.7272727%" y2="78.854646%" id="linearGradient-11">
            <stop stop-color="#029347" offset="0%"></stop>
            <stop stop-color="#3DA83E" stop-opacity="0.7" offset="17%"></stop>
            <stop stop-color="#70BA37" stop-opacity="0.45" offset="34%"></stop>
            <stop stop-color="#98C931" stop-opacity="0.25" offset="51%"></stop>
            <stop stop-color="#B4D32D" stop-opacity="0.11" offset="67%"></stop>
            <stop stop-color="#C5D92B" stop-opacity="0.03" offset="84%"></stop>
            <stop stop-color="#CBDB2A" stop-opacity="0" offset="100%"></stop>
        </linearGradient>
    </defs>
    <g id="Page-1" stroke="none" stroke-width="1" fill="none" fill-rule="evenodd">
        <g id="logo">
            <g id="capillary" transform="translate(0.000000, 1.000000)">
                <path d="M54.1542473,11.0230645 C56.0295161,12.3357527 58.4908065,14.0762366 60.4891398,15.6467742 C86.490914,1.9866129 102.975699,24.6246237 86.8601075,39.1638172 C84.7719414,40.9807495 82.483394,42.5536344 80.0388172,43.8519892 C71.8345161,48.4991398 59.6687097,54.8984946 56.8909677,64.9487634 C55.4376344,70.222957 57.0491935,76.464086 61.4326344,79.7692473 C64.7612366,82.2832796 69.050914,82.8165591 72.9889785,81.9023656 C87.9383871,78.7671505 92.0698387,62.8156452 87.6043548,50.3216667 L87.4812903,50.3978495 C89.6483965,49.0336453 91.7288554,47.5364195 93.7106989,45.9147849 C129.311505,16.5316667 95.046828,-16.4965054 54.1542473,11.0230645 Z M79.6989247,54.8633333 C81.1405376,69.513871 65.9860215,77.718172 60.2078495,73.3523118 C54.4296774,68.9864516 68.7403226,60.741129 76.2413978,56.7210215 L79.6989247,54.8633333 Z" id="Shape" fill="url(#linearGradient-1)"></path>
                <path d="M78.2280108,11.5622043 L78.2280108,1.17204301 C70.8675806,2.23274194 62.6515591,5.3327957 54.1542473,11.0523656 C56.0295161,12.3650538 58.4908065,14.1055376 60.4891398,15.6760753 C67.1580645,12.1423656 73.194086,11.0347849 78.2280108,11.5622043 Z" id="Path" fill="url(#linearGradient-2)"></path>
                <path d="M87.6219355,50.304086 L79.6989247,54.8633333 C79.9262775,57.0775834 79.7535829,59.3146733 79.189086,61.4677957 L79.189086,79.5465591 C88.917043,73.9266129 91.5189785,60.9462366 87.6219355,50.304086 Z" id="Path" fill="url(#linearGradient-3)"></path>
                <path d="M61.5322581,16.4554839 C59.1412903,14.5743548 56.844086,12.5877419 54.3241935,10.8824194 C11.3805376,-18.2780108 -24.5425806,20.7275806 21.5069892,50.602957 C22.6399263,47.5690479 24.011607,44.6297322 25.6091398,41.8126344 C3.27586022,27.9415054 20.7861828,1.01967742 48.1944086,15.6467742 C50.1165591,16.5609677 71.6352688,29.3772581 77.1145699,45.533871 C79.3473118,44.2739247 81.6620968,43.0608602 83.8889785,41.5313441 C79.6403226,33.8310215 70.6800538,23.897957 61.5322581,16.4554839 Z" id="Path" fill="url(#linearGradient-4)"></path>
                <path d="M72.9303763,27.1327957 C72.6315054,27.4433871 72.3443548,27.7481183 72.0161828,28.0294086 C71.5883871,28.3927419 71.1430108,28.7384946 70.685914,29.0666667 C70.2288172,29.3948387 69.7541398,29.7171505 69.2736022,30.0277419 L67.8612903,30.9595161 L67.7909677,31.0063978 C71.7876344,35.2784946 75.3213441,40.2069355 77.1145699,45.5045699 C79.3473118,44.2446237 81.6620968,43.0315591 83.8889785,41.502043 C81.4569892,37.1537634 77.5482258,32.072957 72.9303763,27.1327957 Z" id="Path" fill="url(#linearGradient-5)"></path>
                <path d="M16.0628495,30.5082796 L16.0628495,30.5082796 C15.1788093,31.288762 14.2299359,31.9925752 13.2265054,32.6120968 C12.2185484,33.2508602 11.1754301,33.8368817 10.138172,34.4346237 C9.62247312,34.7276344 9.10677419,35.0206452 8.59693548,35.3370968 C8.34494624,35.4894624 8.0988172,35.6476882 7.84096774,35.7941935 C7.58311828,35.9406989 7.32526882,36.0989247 7.07327957,36.2630108 C6.82129032,36.4270968 6.44623656,36.7083871 6.15322581,36.9193548 C9.6166129,41.5137634 14.6505376,46.1550538 21.4894086,50.602957 C22.6223457,47.5690479 23.9940264,44.6297322 25.5915591,41.8126344 C20.329086,38.5367742 17.2876344,34.5283871 16.0628495,30.5082796 Z" id="Path" fill="url(#linearGradient-6)"></path>
                <path d="M16.0628495,30.5082796 L16.0628495,30.5082796 C15.1788093,31.288762 14.2299359,31.9925752 13.2265054,32.6120968 C12.2185484,33.2508602 11.1754301,33.8368817 10.138172,34.4346237 C9.62247312,34.7276344 9.10677419,35.0206452 8.59693548,35.3370968 C8.34494624,35.4894624 8.0988172,35.6476882 7.84096774,35.7941935 C7.58311828,35.9406989 7.32526882,36.0989247 7.07327957,36.2630108 C6.82129032,36.4270968 6.44623656,36.7083871 6.15322581,36.9193548 C9.6166129,41.5137634 14.6505376,46.1550538 21.4894086,50.602957 C22.6223457,47.5690479 23.9940264,44.6297322 25.5915591,41.8126344 C20.329086,38.5367742 17.2876344,34.5283871 16.0628495,30.5082796 Z" id="Path" fill="url(#linearGradient-7)"></path>
                <path d="M32.4948925,45.7096774 C32.6648387,45.3404839 32.8406452,44.9771505 33.0105914,44.6313978 C37.2065054,35.9348387 46.078871,26.1658602 54.5351613,19.6668817 C54.1249462,19.373871 53.2810753,18.7702688 52.8825806,18.4948387 C51.436382,17.4712367 49.9185954,16.5527309 48.340914,15.7463978 C42.3107527,20.6689785 35.7473118,27.2734409 31.5982796,32.6882796 C26.0720968,39.9080645 19.291828,49.0968817 19.291828,61.0282796 C19.291828,70.6390323 24.3023118,79.4996774 35.7004301,81.8847849 C39.6619355,82.7989785 44.3032258,82.2656989 47.631828,79.7516667 C52.0094086,76.4465054 53.7323118,70.1526344 52.1793548,64.9311828 C49.0675806,54.5937634 32.4948925,45.7096774 32.4948925,45.7096774 Z M48.9386559,72.9538172 C44.1860215,77.9408602 29.9222581,70.9847849 29.0608065,58.7955376 C28.9652401,57.5474363 29.0640883,56.2920642 29.3538172,55.0743011 C31.7565054,56.2580645 54.3241935,67.2401075 48.9386559,72.9303763 L48.9386559,72.9538172 Z" id="Shape" fill="url(#linearGradient-8)"></path>
                <path d="M37.2182258,27.3906452 C37.9644265,27.968853 38.7184409,28.5372939 39.4802688,29.0959677 C40.2420968,29.6546416 41.0136918,30.1937814 41.7950538,30.7133871 C41.9825806,30.8423118 42.181828,30.9595161 42.3810753,31.0825806 C46.0638367,26.8959446 50.1332143,23.0659422 54.5351613,19.6434409 C54.1249462,19.3504301 53.2810753,18.746828 52.8825806,18.4713978 C51.436382,17.4477958 49.9185954,16.5292901 48.340914,15.722957 C44.1712918,19.1683096 40.2362072,22.8880413 36.5618817,26.8573656 C36.7787097,27.0390323 36.9955376,27.2206989 37.2182258,27.3906452 Z" id="Path" fill="url(#linearGradient-9)"></path>
                <path d="M32.5007527,45.7096774 C31.1534254,48.7269407 30.0995895,51.8668614 29.3538172,55.0860215 C30.6196237,55.672043 37.7280645,59.188172 43.1956452,63.1086559 L51.4644086,63.1086559 C47.1512903,53.5623656 32.5007527,45.7096774 32.5007527,45.7096774 Z" id="Path" fill="url(#linearGradient-10)"></path>
                <path d="M32.5007527,45.7096774 C31.1534254,48.7269407 30.0995895,51.8668614 29.3538172,55.0860215 C30.6196237,55.672043 37.7280645,59.188172 43.1956452,63.1086559 L51.4644086,63.1086559 C47.1512903,53.5623656 32.5007527,45.7096774 32.5007527,45.7096774 Z" id="Path" fill="url(#linearGradient-11)"></path>
            </g>
            <g id="Group-5" transform="translate(131.299993, 0.000000)" fill-rule="nonzero">
                <path d="M16.6598417,68.7696 C14.7101787,68.7696 12.8888103,68.4489365 11.1956819,67.8076 C9.50255354,67.1662635 8.04032821,66.2684058 6.8089621,65.1140001 C5.57759599,63.9595944 4.61560565,62.6128079 3.92296221,61.0736003 C3.23031877,59.5343926 2.88400225,57.8412896 2.88400225,55.9942404 C2.88400225,54.0958844 3.307278,52.3386487 4.1538422,50.7224806 C5.0004064,49.1063126 6.18044789,47.7338731 7.69400207,46.6051208 C9.20755625,45.4763685 11.0160981,44.5913374 13.1196819,43.9500009 C15.2232656,43.3086644 17.5320425,42.9880009 20.0460816,42.9880009 C21.8418239,42.9880009 23.5990596,43.1419194 25.3178414,43.4497609 C27.0366233,43.7576024 28.5629813,44.1937047 29.8969613,44.7580809 L29.8969613,42.4492809 C29.8969613,39.781321 29.1401955,37.729075 27.6266413,36.2924812 C26.1130872,34.8558874 23.868443,34.1376012 20.8926416,34.1376012 C18.7377509,34.1376012 16.6341987,34.5223974 14.5819218,35.2920012 C12.529645,36.061605 10.4260927,37.1903404 8.27120205,38.6782411 L5.11584217,32.1366413 C10.2978412,28.6990776 15.8902118,26.9803215 21.8931216,26.9803215 C27.6908037,26.9803215 32.1929185,28.4040672 35.3996011,31.2516013 C38.6062836,34.0991355 40.2096009,38.2164542 40.2096009,43.6036809 L40.2096009,56.1481604 C40.2096009,57.2256058 40.4019989,57.9951981 40.7868009,58.4569603 C41.1716028,58.9187226 41.8001031,59.1752534 42.6723208,59.2265603 L42.6723208,68 C40.9278855,68.3591484 39.414354,68.53872 38.131681,68.53872 C36.1820179,68.53872 34.681313,68.1026177 33.6295211,67.2304 C32.5777292,66.3581824 31.9235758,65.203794 31.6670412,63.7672002 L31.4361612,61.5353602 C29.640419,63.8954786 27.4599075,65.6911939 24.8945614,66.92256 C22.3292154,68.1539262 19.5843363,68.7696 16.6598417,68.7696 Z M19.5843216,61.2275202 C21.328757,61.2275202 22.9833804,60.9196833 24.5482415,60.3040003 C26.1131026,59.6883172 27.3316237,58.8674188 28.2038413,57.8412804 C29.3325936,56.9690627 29.8969613,55.9942458 29.8969613,54.9168005 L29.8969613,50.2992006 C28.6655951,49.8374384 27.3316352,49.4654688 25.8950414,49.1832807 C24.4584476,48.9010926 23.0731815,48.7600007 21.7392016,48.7600007 C19.0712416,48.7600007 16.8907302,49.362848 15.1976018,50.5685606 C13.5044734,51.7742733 12.6579219,53.3006313 12.6579219,55.1476805 C12.6579219,56.8921158 13.3249019,58.3415146 14.6588818,59.4959203 C15.9928618,60.650326 17.6346586,61.2275202 19.5843216,61.2275202 Z M73.9950396,68.7696 C70.8140105,68.7696 68.0434783,68.0641404 65.6833599,66.6532 C63.3232416,65.2422597 61.4762201,63.3311056 60.1422401,60.9196803 L60.1422401,84.3924794 L49.8296005,84.3924794 L49.8296005,27.6729615 L58.8339202,27.6729615 L58.8339202,34.5993612 C60.3218209,32.2392428 62.2458016,30.3793948 64.60592,29.0197614 C66.9660384,27.660128 69.6852644,26.9803215 72.7636797,26.9803215 C75.4829465,26.9803215 77.996948,27.5318626 80.3057594,28.6349614 C82.6145709,29.7380603 84.6026842,31.2259387 86.2701592,33.0986413 C87.9376341,34.9713439 89.245941,37.1775084 90.195119,39.717201 C91.1442971,42.2568936 91.618879,44.9376401 91.618879,47.7595207 C91.618879,50.6840153 91.1827767,53.4288944 90.310559,55.9942404 C89.4383414,58.5595865 88.2198203,60.7914041 86.6549592,62.6897602 C85.0900981,64.5881163 83.2302501,66.0759947 81.0753594,67.15344 C78.9204687,68.2308854 76.5603857,68.7696 73.9950396,68.7696 Z M70.5318398,59.9961603 C72.0710474,59.9961603 73.4947931,59.6626703 74.8031196,58.9956803 C76.1114461,58.3286904 77.2273549,57.4308327 78.1508795,56.3020804 C79.0744041,55.1733282 79.7926902,53.8650213 80.3057594,52.3771206 C80.8188286,50.8892199 81.0753594,49.3500353 81.0753594,47.7595207 C81.0753594,46.0663923 80.7931755,44.4887282 80.2287994,43.0264809 C79.6644233,41.5642337 78.8820045,40.2944064 77.8815195,39.2169611 C76.8810345,38.1395157 75.700993,37.2929642 74.3413596,36.6772811 C72.9817262,36.0615981 71.5066744,35.7537612 69.9161598,35.7537612 C68.9413283,35.7537612 67.9408583,35.9205062 66.9147199,36.2540012 C65.8885815,36.5874962 64.9394177,37.0620781 64.0672,37.6777611 C63.1949823,38.2934442 62.4125635,39.0117303 61.7199201,39.832641 C61.0272767,40.6535518 60.5013886,41.5514094 60.1422401,42.5262409 L60.1422401,51.9923206 C61.0657647,54.301132 62.4766839,56.2122862 64.37504,57.7258404 C66.2733961,59.2393946 68.3256422,59.9961603 70.5318398,59.9961603 Z M98.6222387,68 L98.6222387,27.6729615 L108.934878,27.6729615 L108.934878,68 L98.6222387,68 Z M98.6222387,22.0548817 L98.6222387,11.8192021 L108.934878,11.8192021 L108.934878,22.0548817 L98.6222387,22.0548817 Z M135.793917,68.7696 C133.023344,68.7696 130.458036,68.1924058 128.097918,67.038 C125.737799,65.8835943 123.711206,64.3572363 122.018078,62.4588802 C120.324949,60.5605241 119.003816,58.3671861 118.054638,55.8788004 C117.10546,53.3904148 116.630878,50.7866276 116.630878,48.0673607 C116.630878,45.2454801 117.092633,42.5647336 118.016158,40.025041 C118.939683,37.4853484 120.20951,35.2663574 121.825678,33.3680013 C123.441846,31.4696452 125.365827,29.9689402 127.597678,28.8658414 C129.829529,27.7627426 132.279397,27.2112015 134.947357,27.2112015 C138.333614,27.2112015 141.335024,28.0962326 143.951677,29.8663214 C146.56833,31.6364102 148.620576,33.778442 150.108477,36.2924812 L150.108477,11.8192021 L155.341757,11.8192021 L155.341757,61.2275202 C155.341757,62.664114 155.95743,63.3824002 157.188797,63.3824002 L157.188797,68 C156.419193,68.1539208 155.803519,68.23088 155.341757,68.23088 C154.110391,68.23088 153.032961,67.8332573 152.109437,67.038 C151.185912,66.2427428 150.724157,65.2807524 150.724157,64.1520001 L150.724157,60.2270403 C149.133642,62.8436933 146.978784,64.9215924 144.259517,66.4608001 C141.54025,68.0000077 138.718412,68.7696 135.793917,68.7696 Z M136.948317,64.1520001 C138.23099,64.1520001 139.60343,63.8954694 141.065677,63.3824002 C142.527924,62.869331 143.900364,62.1638714 145.183037,61.2660002 C146.46571,60.3681291 147.555966,59.316353 148.453837,58.1106404 C149.351708,56.9049277 149.903249,55.6094474 150.108477,54.2241605 L150.108477,41.833601 C149.595408,40.4483141 148.851468,39.1528338 147.876637,37.9471211 C146.901805,36.7414085 145.785897,35.6768058 144.528877,34.7532812 C143.271857,33.8297566 141.925071,33.1114705 140.488477,32.5984013 C139.051883,32.0853321 137.640964,31.8288013 136.255677,31.8288013 C134.100787,31.8288013 132.151153,32.2905567 130.406718,33.2140813 C128.662282,34.1376059 127.161577,35.356127 125.904558,36.8696811 C124.647538,38.3832353 123.685548,40.1148179 123.018558,42.064481 C122.351568,44.014144 122.018078,46.0150839 122.018078,48.0673607 C122.018078,50.2222514 122.402874,52.2744975 123.172478,54.2241605 C123.942082,56.1738235 124.993858,57.8797531 126.327838,59.3420003 C127.661818,60.8042476 129.239482,61.9714625 131.060878,62.8436802 C132.882273,63.7158979 134.844734,64.1520001 136.948317,64.1520001 Z M184.278716,68.7696 C181.354221,68.7696 178.686301,68.2180588 176.274876,67.11496 C173.863451,66.0118612 171.772725,64.5111563 170.002636,62.6128002 C168.232547,60.7144441 166.860108,58.5082796 165.885276,55.9942404 C164.910445,53.4802013 164.423036,50.8379345 164.423036,48.0673607 C164.423036,45.2454801 164.923271,42.5775602 165.923756,40.063521 C166.924241,37.5494819 168.309507,35.3433174 170.079596,33.4449613 C171.849685,31.5466052 173.940411,30.0330737 176.351836,28.9043214 C178.763261,27.7755692 181.405528,27.2112015 184.278716,27.2112015 C187.151903,27.2112015 189.806997,27.7755692 192.244075,28.9043214 C194.681154,30.0330737 196.784706,31.5466052 198.554795,33.4449613 C200.324884,35.3433174 201.71015,37.5494819 202.710635,40.063521 C203.71112,42.5775602 204.211355,45.2454801 204.211355,48.0673607 C204.211355,50.8379345 203.723946,53.4802013 202.749115,55.9942404 C201.774283,58.5082796 200.401844,60.7144441 198.631755,62.6128002 C196.861666,64.5111563 194.758114,66.0118612 192.321035,67.11496 C189.883957,68.2180588 187.20321,68.7696 184.278716,68.7696 Z M169.733276,48.1443207 C169.733276,50.4018253 170.118072,52.4925509 170.887676,54.4165605 C171.65728,56.34057 172.696229,58.0336731 174.004556,59.4959203 C175.312882,60.9581676 176.852067,62.0997294 178.622156,62.9206402 C180.392245,63.7415509 182.277746,64.1520001 184.278716,64.1520001 C186.279686,64.1520001 188.165187,63.7287244 189.935275,62.8821602 C191.705364,62.035596 193.257375,60.8812076 194.591355,59.4189603 C195.925335,57.9567131 196.977111,56.2507835 197.746715,54.3011205 C198.516319,52.3514575 198.901115,50.2479053 198.901115,47.9904007 C198.901115,45.7842031 198.516319,43.6934774 197.746715,41.718161 C196.977111,39.7428445 195.925335,38.0240884 194.591355,36.5618412 C193.257375,35.0995939 191.705364,33.9452055 189.935275,33.0986413 C188.165187,32.2520771 186.279686,31.8288013 184.278716,31.8288013 C182.277746,31.8288013 180.405071,32.2520771 178.660636,33.0986413 C176.9162,33.9452055 175.377016,35.1124204 174.043036,36.6003212 C172.709056,38.0882219 171.65728,39.8198045 170.887676,41.795121 C170.118072,43.7704374 169.733276,45.8868162 169.733276,48.1443207 Z M210.214235,47.8364807 C210.214235,45.0146001 210.701643,42.3466802 211.676475,39.832641 C212.651306,37.3186019 214.023746,35.1252639 215.793834,33.2525613 C217.563923,31.3798586 219.680302,29.9048068 222.143034,28.8273614 C224.605766,27.7499161 227.324992,27.2112015 230.300794,27.2112015 C234.097506,27.2112015 237.406753,28.0705795 240.228634,29.7893614 C243.050514,31.5081433 245.17972,33.8297466 246.616313,36.7542411 L241.536954,38.3704011 C240.408201,36.3181242 238.830537,34.714807 236.803914,33.5604013 C234.77729,32.4059955 232.532646,31.8288013 230.069914,31.8288013 C228.017637,31.8288013 226.106483,32.2392505 224.336394,33.0601613 C222.566305,33.881072 221.027121,34.9969808 219.718794,36.4079212 C218.410468,37.8188615 217.384345,39.499138 216.640394,41.448801 C215.896444,43.398464 215.524474,45.5276693 215.524474,47.8364807 C215.524474,50.0939853 215.909271,52.2231906 216.678874,54.2241605 C217.448478,56.2251304 218.500254,57.9567131 219.834234,59.4189603 C221.168214,60.8812076 222.720225,62.035596 224.490314,62.8821602 C226.260403,63.7287244 228.145904,64.1520001 230.146874,64.1520001 C231.429547,64.1520001 232.699374,63.9724286 233.956394,63.6132802 C235.213413,63.2541317 236.380628,62.7538967 237.458074,62.1125602 C238.535519,61.4712237 239.45903,60.740111 240.228634,59.9192003 C240.998237,59.0982896 241.536952,58.226085 241.844793,57.3025604 L247.001113,58.8417603 C246.436737,60.2783541 245.615839,61.5994875 244.538393,62.8052002 C243.460948,64.0109128 242.191121,65.062689 240.728874,65.9605601 C239.266626,66.8584312 237.650482,67.5510642 235.880394,68.03848 C234.110305,68.5258958 232.27611,68.7696 230.377754,68.7696 C227.453259,68.7696 224.759686,68.2180588 222.296954,67.11496 C219.834222,66.0118612 217.705017,64.4983297 215.909274,62.5743202 C214.113532,60.6503106 212.71544,58.4313196 211.714955,55.9172804 C210.71447,53.4032413 210.214235,50.7096683 210.214235,47.8364807 Z M268.549913,68.7696 C265.42019,68.7696 262.367474,68.2565385 259.391673,67.2304 C256.415871,66.2042616 253.850564,64.7163832 251.695673,62.7667202 L254.081433,59.2265603 C256.338938,61.0736095 258.634888,62.4588756 260.969353,63.3824002 C263.303818,64.3059248 265.804993,64.7676801 268.472953,64.7676801 C271.705289,64.7676801 274.283423,64.1135267 276.207432,62.8052002 C278.131442,61.4968737 279.093432,59.6370257 279.093432,57.2256004 C279.093432,56.0968481 278.836901,55.1605109 278.323832,54.4165605 C277.810763,53.6726101 277.053997,53.0184567 276.053512,52.4540806 C275.053027,51.8897044 273.796027,51.3894695 272.282472,50.9533606 C270.768918,50.5172518 269.011682,50.068323 267.010713,49.6065607 C264.701901,49.0421845 262.700961,48.4778169 261.007833,47.9134407 C259.314704,47.3490646 257.916612,46.7077377 256.813513,45.9894408 C255.710414,45.2711439 254.889516,44.3861128 254.350793,43.3343209 C253.81207,42.282529 253.542713,40.9613956 253.542713,39.370881 C253.542713,37.3699111 253.940336,35.5998489 254.735593,34.0606412 C255.53085,32.5214336 256.608279,31.2516063 257.967913,30.2511214 C259.327546,29.2506364 260.918037,28.4938707 262.739433,27.9808015 C264.560828,27.4677323 266.497636,27.2112015 268.549913,27.2112015 C271.628328,27.2112015 274.424513,27.7114365 276.938552,28.7119214 C279.452591,29.7124064 281.479184,31.0335398 283.018392,32.6753613 L280.478712,35.7537612 C278.990811,34.2145535 277.18227,33.0601651 275.053032,32.2905613 C272.923795,31.5209575 270.704804,31.1361614 268.395993,31.1361614 C267.010706,31.1361614 265.728052,31.2772533 264.547993,31.5594413 C263.367933,31.8416294 262.328984,32.2905582 261.431113,32.9062413 C260.533242,33.5219243 259.827782,34.3043432 259.314713,35.2535212 C258.801644,36.2026992 258.545113,37.318608 258.545113,38.6012811 C258.545113,39.6787264 258.724684,40.550931 259.083833,41.217921 C259.442981,41.884911 260.033002,42.4621052 260.853913,42.9495209 C261.674824,43.4369367 262.713773,43.873039 263.970793,44.2578409 C265.227812,44.6426428 266.75417,45.0402655 268.549913,45.4507208 C271.115259,46.0664039 273.372729,46.6820777 275.322392,47.2977608 C277.272055,47.9134438 278.901026,48.6317299 280.209352,49.4526407 C281.517679,50.2735514 282.505322,51.2740214 283.172312,52.4540806 C283.839302,53.6341398 284.172792,55.070712 284.172792,56.7638404 C284.172792,60.4579387 282.761873,63.3823894 279.939992,65.5372801 C277.118111,67.6921708 273.321456,68.7696 268.549913,68.7696 Z" id="apidocs" fill="#012955"></path>
                <path d="M0.559439971,9.7652403 C0.559439971,9.0326366 0.685978699,8.3400036 0.939059952,7.6873204 C1.1921412,7.0346371 1.55843752,6.4618829 2.03795989,5.96904047 C2.51748227,5.47619803 3.09689644,5.08326198 3.77621981,4.79022053 C4.45554317,4.49717908 5.22143547,4.35066055 6.07391969,4.35066055 C7.21944536,4.35066055 8.19512555,4.59707807 9.00098954,5.08992051 C9.80685352,5.58276295 10.4095775,6.2287765 10.8091794,7.0279804 L8.19179958,7.8271804 C7.96535846,7.4408985 7.66566147,7.1445314 7.29269962,6.9380704 C6.91973778,6.7316094 6.50682193,6.6283804 6.05393969,6.6283804 C5.66765778,6.6283804 5.30802139,6.7049697 4.97501974,6.8581504 C4.6420181,7.0113312 4.35231101,7.224449 4.10588979,7.4975104 C3.85946857,7.7705717 3.66633051,8.1002384 3.52646982,8.4865203 C3.38660913,8.8728022 3.31667983,9.299038 3.31667983,9.7652403 C3.31667983,10.2314426 3.38993909,10.6576783 3.53645982,11.0439602 C3.68298054,11.4302421 3.87944857,11.7632388 4.12586979,12.0429602 C4.37229101,12.3226815 4.66199809,12.5391294 4.99499974,12.6923101 C5.32800139,12.8454909 5.68097784,12.9220801 6.05393969,12.9220801 C6.53346206,12.9220801 6.97634761,12.8022013 7.38260962,12.5624401 C7.78887163,12.3226789 8.07191878,12.0296419 8.23175958,11.6833202 L10.8491394,12.4825201 C10.4894977,13.2817241 9.89676362,13.9343975 9.07091953,14.44056 C8.24507545,14.9467225 7.25274542,15.1998 6.09389969,15.1998 C5.24141547,15.1998 4.47552317,15.0532815 3.7961998,14.76024 C3.11687644,14.4671986 2.53746227,14.0709325 2.05793989,13.5714301 C1.57841752,13.0719276 1.20879124,12.4925134 0.949049951,11.8331702 C0.689308666,11.1738269 0.559439971,10.4845238 0.559439971,9.7652403 Z M15.3446392,15.1998 C14.8384767,15.1998 14.3656215,15.1165508 13.9260593,14.95005 C13.4864971,14.7835492 13.1068809,14.5504515 12.7871993,14.25075 C12.4675178,13.9510486 12.2177703,13.6014021 12.0379494,13.2018001 C11.8581285,12.8021981 11.7682194,12.3626425 11.7682194,11.8831202 C11.7682194,11.3902777 11.8781083,10.9340723 12.0978894,10.5144902 C12.3176705,10.0949082 12.6240274,9.7386017 13.0169693,9.4455603 C13.4099113,9.1525188 13.8794366,8.9227511 14.4255593,8.7562503 C14.971682,8.5897495 15.5710759,8.5065003 16.2237592,8.5065003 C16.6899615,8.5065003 17.1461669,8.5464599 17.5923891,8.6263803 C18.0386113,8.7063007 18.4348773,8.8195196 18.781199,8.9660403 L18.781199,8.3666403 C18.781199,7.6739969 18.584731,7.1412023 18.1917891,6.7682404 C17.7988471,6.3952786 17.216103,6.2088005 16.4435392,6.2088005 C15.8840964,6.2088005 15.3379819,6.3086994 14.8051792,6.5085004 C14.2723766,6.7083014 13.7262621,7.0013385 13.1668193,7.3876204 L12.3476394,5.68932048 C13.692966,4.79687606 15.1448314,4.35066055 16.7032791,4.35066055 C18.2084466,4.35066055 19.3772648,4.72028683 20.209769,5.45955049 C21.0422731,6.1988142 21.4585189,7.2677334 21.4585189,8.6663403 L21.4585189,11.9230802 C21.4585189,12.2028015 21.5084684,12.4025995 21.6083689,12.5224801 C21.7082694,12.6423607 21.8714377,12.7089601 22.0978789,12.7222801 L22.0978789,15 C21.6449966,15.0932405 21.2520606,15.13986 20.9190589,15.13986 C20.4128964,15.13986 20.0232903,15.0266411 19.750229,14.8002 C19.4771676,14.5737589 19.3073393,14.2740619 19.240739,13.9011001 L19.180799,13.3216801 C18.7145967,13.9344031 18.1485024,14.4005984 17.4824991,14.72028 C16.8164958,15.0399616 16.103883,15.1998 15.3446392,15.1998 Z M16.1038792,13.2417601 C16.5567614,13.2417601 16.9863271,13.1618409 17.3925891,13.0020001 C17.7988511,12.8421593 18.1151979,12.6290415 18.3416391,12.3626401 C18.6346805,12.136199 18.781199,11.8831216 18.781199,11.6034002 L18.781199,10.4046002 C18.4615174,10.2847196 18.1152009,10.1881506 17.7422391,10.1148903 C17.3692772,10.0416299 17.0096409,10.0050003 16.6633191,10.0050003 C15.9706757,10.0050003 15.4045814,10.1615087 14.9650192,10.4745302 C14.5254571,10.7875518 14.3056793,11.1838178 14.3056793,11.6633402 C14.3056793,12.1162224 14.4788375,12.4925086 14.8251592,12.7922101 C15.1714809,13.0919116 15.5977167,13.2417601 16.1038792,13.2417601 Z M30.2297384,15.1998 C29.4038944,15.1998 28.6846216,15.0166518 28.0718986,14.65035 C27.4591755,14.2840482 26.9796603,13.7878832 26.6333386,13.1618401 L26.6333386,19.2557398 L23.9560188,19.2557398 L23.9560188,4.53048054 L26.2936786,4.53048054 L26.2936786,6.3286804 C26.6799606,5.71595741 27.1794555,5.23311227 27.7921786,4.88013052 C28.4049016,4.52714877 29.1108545,4.35066055 29.9100585,4.35066055 C30.616022,4.35066055 31.2686954,4.49384911 31.8680984,4.78023053 C32.4675013,5.06661194 32.9836461,5.45288806 33.4165483,5.93907047 C33.8494504,6.4252529 34.189107,6.9980071 34.4355282,7.6573504 C34.6819494,8.3166936 34.8051582,9.0126566 34.8051582,9.7452603 C34.8051582,10.504504 34.6919393,11.2171169 34.4654982,11.8831202 C34.2390571,12.5491235 33.9227103,13.1285376 33.5164483,13.6213801 C33.1101863,14.1142225 32.6273411,14.5004986 32.0678983,14.78022 C31.5084556,15.0599414 30.8957417,15.1998 30.2297384,15.1998 Z M29.3306385,12.9220801 C29.7302405,12.9220801 30.0998668,12.835501 30.4395284,12.6623401 C30.7791901,12.4891793 31.0688972,12.2560816 31.3086584,11.9630402 C31.5484196,11.6699987 31.7348977,11.3303421 31.8680984,10.9440602 C32.001299,10.5577783 32.0678983,10.1581823 32.0678983,9.7452603 C32.0678983,9.3056981 31.9946391,8.8961122 31.8481184,8.5164903 C31.7015976,8.1368685 31.4984697,7.8072018 31.2387284,7.5274804 C30.9789871,7.247759 30.6726302,7.0279812 30.3196484,6.8681404 C29.9666667,6.7082996 29.5837205,6.6283804 29.1707985,6.6283804 C28.9177172,6.6283804 28.6579799,6.67167 28.3915785,6.7582504 C28.1251772,6.8448309 27.8787597,6.9680396 27.6523186,7.1278804 C27.4258775,7.2877212 27.2227495,7.4741993 27.0429286,7.6873204 C26.8631077,7.9004414 26.7265791,8.1335391 26.6333386,8.3866203 L26.6333386,10.8441602 C26.8730998,11.4435632 27.2393961,11.9397282 27.7322386,12.3326701 C28.225081,12.7256121 28.7578757,12.9220801 29.3306385,12.9220801 Z M36.6233381,15 L36.6233381,4.53048054 L39.300658,4.53048054 L39.300658,15 L36.6233381,15 Z M36.6233381,3.07194061 L36.6233381,0.41460075 L39.300658,0.41460075 L39.300658,3.07194061 L36.6233381,3.07194061 Z M41.6982579,0.41460075 L44.3755777,0.41460075 L44.3755777,11.6433602 C44.3755777,12.0296421 44.4688168,12.3293391 44.6552977,12.5424601 C44.8417786,12.7555812 45.1081759,12.8621401 45.4544977,12.8621401 C45.6143384,12.8621401 45.7908267,12.8355004 45.9839676,12.7822201 C46.1771086,12.7289399 46.3602567,12.6623405 46.5334176,12.5824201 L46.8930576,14.62038 C46.5334158,14.7935409 46.11384,14.9267395 45.6343176,15.01998 C45.1547953,15.1132205 44.7218996,15.15984 44.3356177,15.15984 C43.4964536,15.15984 42.8471101,14.9367322 42.3875678,14.49051 C41.9280255,14.0442878 41.6982579,13.4082642 41.6982579,12.5824201 L41.6982579,0.41460075 Z M48.0319175,0.41460075 L50.7092374,0.41460075 L50.7092374,11.6433602 C50.7092374,12.0296421 50.8024764,12.3293391 50.9889574,12.5424601 C51.1754383,12.7555812 51.4418356,12.8621401 51.7881573,12.8621401 C51.9479981,12.8621401 52.1244863,12.8355004 52.3176273,12.7822201 C52.5107683,12.7289399 52.6939164,12.6623405 52.8670773,12.5824201 L53.2267173,14.62038 C52.8670755,14.7935409 52.4474997,14.9267395 51.9679773,15.01998 C51.4884549,15.1132205 51.0555593,15.15984 50.6692774,15.15984 C49.8301132,15.15984 49.1807698,14.9367322 48.7212275,14.49051 C48.2616852,14.0442878 48.0319175,13.4082642 48.0319175,12.5824201 L48.0319175,0.41460075 Z M57.242697,15.1998 C56.7365345,15.1998 56.2636793,15.1165508 55.8241171,14.95005 C55.3845549,14.7835492 55.0049388,14.5504515 54.6852572,14.25075 C54.3655756,13.9510486 54.1158281,13.6014021 53.9360072,13.2018001 C53.7561863,12.8021981 53.6662772,12.3626425 53.6662772,11.8831202 C53.6662772,11.3902777 53.7761661,10.9340723 53.9959472,10.5144902 C54.2157283,10.0949082 54.5220852,9.7386017 54.9150272,9.4455603 C55.3079691,9.1525188 55.7774944,8.9227511 56.3236171,8.7562503 C56.8697398,8.5897495 57.4691338,8.5065003 58.121817,8.5065003 C58.5880193,8.5065003 59.0442247,8.5464599 59.4904469,8.6263803 C59.9366691,8.7063007 60.3329352,8.8195196 60.6792569,8.9660403 L60.6792569,8.3666403 C60.6792569,7.6739969 60.4827888,7.1412023 60.0898469,6.7682404 C59.696905,6.3952786 59.1141608,6.2088005 58.341597,6.2088005 C57.7821542,6.2088005 57.2360397,6.3086994 56.7032371,6.5085004 C56.1704344,6.7083014 55.6243199,7.0013385 55.0648772,7.3876204 L54.2456972,5.68932048 C55.5910239,4.79687606 57.0428893,4.35066055 58.601337,4.35066055 C60.1065044,4.35066055 61.2753227,4.72028683 62.1078268,5.45955049 C62.9403309,6.1988142 63.3565767,7.2677334 63.3565767,8.6663403 L63.3565767,11.9230802 C63.3565767,12.2028015 63.4065262,12.4025995 63.5064267,12.5224801 C63.6063272,12.6423607 63.7694956,12.7089601 63.9959367,12.7222801 L63.9959367,15 C63.5430545,15.0932405 63.1501184,15.13986 62.8171168,15.13986 C62.3109543,15.13986 61.9213482,15.0266411 61.6482868,14.8002 C61.3752255,14.5737589 61.2053972,14.2740619 61.1387968,13.9011001 L61.0788569,13.3216801 C60.6126545,13.9344031 60.0465602,14.4005984 59.3805569,14.72028 C58.7145536,15.0399616 58.0019408,15.1998 57.242697,15.1998 Z M58.001937,13.2417601 C58.4548193,13.2417601 58.8843849,13.1618409 59.2906469,13.0020001 C59.696909,12.8421593 60.0132558,12.6290415 60.2396969,12.3626401 C60.5327383,12.136199 60.6792569,11.8831216 60.6792569,11.6034002 L60.6792569,10.4046002 C60.3595753,10.2847196 60.0132588,10.1881506 59.6402969,10.1148903 C59.2673351,10.0416299 58.9076987,10.0050003 58.561377,10.0050003 C57.8687336,10.0050003 57.3026392,10.1615087 56.8630771,10.4745302 C56.4235149,10.7875518 56.2037371,11.1838178 56.2037371,11.6633402 C56.2037371,12.1162224 56.3768954,12.4925086 56.7232171,12.7922101 C57.0695388,13.0919116 57.4957745,13.2417601 58.001937,13.2417601 Z M72.0878363,6.8481604 C71.2753123,6.8614805 70.5493796,7.0179889 69.9100164,7.3176904 C69.2706532,7.6173919 68.8111179,8.0669374 68.5313965,8.6663403 L68.5313965,15 L65.8540766,15 L65.8540766,4.53048054 L68.3116165,4.53048054 L68.3116165,6.7682404 C68.4980974,6.4085986 68.7178752,6.0855919 68.9709564,5.79921047 C69.2240377,5.51282906 69.497095,5.26308157 69.7901364,5.04996051 C70.0831779,4.83683946 70.3795449,4.6736711 70.6792464,4.56045054 C70.9789478,4.44722998 71.2686549,4.39062055 71.5483763,4.39062055 L71.8780463,4.39062055 C71.9513067,4.39062055 72.021236,4.39728048 72.0878363,4.41060055 L72.0878363,6.8481604 Z M73.8061162,17.0379599 C74.0325573,17.1045602 74.2523351,17.1545097 74.4654562,17.1878099 C74.6785772,17.2211101 74.8583954,17.2377599 75.0049161,17.2377599 C75.178077,17.2377599 75.3379154,17.2044602 75.4844361,17.1378599 C75.6309568,17.0712596 75.7641555,16.9547107 75.8840361,16.7882099 C76.0039167,16.6217091 76.1237955,16.3919414 76.2436761,16.0988999 C76.3635567,15.8058585 76.4900954,15.4395622 76.6232961,15 L72.4874363,4.53048054 L75.2446761,4.53048054 L78.081836,12.6823201 L80.5993158,4.53048054 L83.1167957,4.53048054 L78.7211959,17.0779199 C78.4681147,17.8105235 78.035219,18.4099175 77.422496,18.8761198 C76.809773,19.3423221 76.0505406,19.5754198 75.1447761,19.5754198 C74.9316551,19.5754198 74.7152072,19.5587699 74.4954262,19.5254698 C74.2756451,19.4921696 74.0458774,19.4355602 73.8061162,19.3556398 L73.8061162,17.0379599 Z" id="capillary" fill="#000000" opacity="0.300000012"></path>
            </g>
        </g>
    </g>
</svg>